HIERARCHY
ROOT Hips
{
 OFFSET 0.000000 0.000000 0.000000
 CHANNELS 6 Xposition Yposition Zposition Yrotation Xrotation Zrotation
 JOINT Chest
 {
  OFFSET 0.000000 9.585900 0.002600
  CHANNELS 3 Yrotation Xrotation Zrotation
  JOINT Chest2
  {
   OFFSET 0.000000 9.601200 -0.005300
   CHANNELS 3 Yrotation Xrotation Zrotation
   JOINT Chest3
   {
    OFFSET 0.000000 9.561800 0.000000
    CHANNELS 3 Yrotation Xrotation Zrotation
    JOINT Chest4
    {
     OFFSET 0.000000 9.552100 0.000000
     CHANNELS 3 Yrotation Xrotation Zrotation
     JOINT Neck
     {
      OFFSET 0.000000 14.453000 0.000000
      CHANNELS 3 Yrotation Xrotation Zrotation
      JOINT Head
      {
       OFFSET 0.000000 8.936500 -0.011300
       CHANNELS 3 Yrotation Xrotation Zrotation
       End Site
       {
        OFFSET 0.000000 17.073600 -0.006000
       }
      }
     }
     JOINT RightCollar
     {
      OFFSET -2.921100 9.558500 0.000000
      CHANNELS 3 Yrotation Xrotation Zrotation
      JOINT RightShoulder
      {
       OFFSET -13.519700 0.000000 0.000000
       CHANNELS 3 Yrotation Xrotation Zrotation
       JOINT RightElbow
       {
        OFFSET 0.000000 -29.696600 0.000000
        CHANNELS 3 Yrotation Xrotation Zrotation
        JOINT RightWrist
        {
         OFFSET 0.000000 -24.004700 0.000000
         CHANNELS 3 Yrotation Xrotation Zrotation
         End Site
         {
          OFFSET 0.000000 -17.728500 0.000000
         }
        }
       }
      }
     }
     JOINT LeftCollar
     {
      OFFSET 2.921100 9.558500 0.000000
      CHANNELS 3 Yrotation Xrotation Zrotation
      JOINT LeftShoulder
      {
       OFFSET 13.519700 0.000000 0.000000
       CHANNELS 3 Yrotation Xrotation Zrotation
       JOINT LeftElbow
       {
        OFFSET 0.000000 -29.696600 0.000000
        CHANNELS 3 Yrotation Xrotation Zrotation
        JOINT LeftWrist
        {
         OFFSET 0.000000 -24.004700 0.000000
         CHANNELS 3 Yrotation Xrotation Zrotation
         End Site
         {
          OFFSET 0.000000 -17.728500 0.000000
         }
        }
       }
      }
     }
    }
   }
  }
 }
 JOINT RightHip
 {
  OFFSET -7.771700 -0.012900 -0.001300
  CHANNELS 3 Yrotation Xrotation Zrotation
  JOINT RightKnee
  {
   OFFSET 0.000000 -40.869800 0.001200
   CHANNELS 3 Yrotation Xrotation Zrotation
   JOINT RightAnkle
   {
    OFFSET 0.000000 -39.717900 0.002100
    CHANNELS 3 Yrotation Xrotation Zrotation
    JOINT RightToe
    {
     OFFSET 0.000000 -4.965400 11.033500
     CHANNELS 3 Yrotation Xrotation Zrotation
     End Site
     {
      OFFSET 0.000000 -1.423100 5.872300
     }
    }
   }
  }
 }
 JOINT LeftHip
 {
  OFFSET 7.771700 -0.012900 -0.001300
  CHANNELS 3 Yrotation Xrotation Zrotation
  JOINT LeftKnee
  {
   OFFSET 0.000000 -40.869800 0.001200
   CHANNELS 3 Yrotation Xrotation Zrotation
   JOINT LeftAnkle
   {
    OFFSET 0.000000 -39.717900 0.002100
    CHANNELS 3 Yrotation Xrotation Zrotation
    JOINT LeftToe
    {
     OFFSET 0.000000 -4.965400 11.033500
     CHANNELS 3 Yrotation Xrotation Zrotation
     End Site
     {
      OFFSET 0.000000 -1.423100 5.872300
     }
    }
   }
  }
 }
}
MOTION
Frames: 12
Frame Time: 0.008333
0.000000 85.388000 0.000000 0.000000 -5.767877 0.000000 0.000000 11.653817 0.000000 0.000000 -5.885947 0.000000 0.000000 -0.000000 0.000000 0.000000 -0.000000 0.000000 0.000000 12.528835 0.000000 0.000000 0.711642 0.000000 0.000000 -0.000000 0.000000 0.000000 0.000000 -90.000000 0.000000 -2.309062 0.000000 0.000000 2.309062 0.000000 0.000000 -0.000000 0.000000 0.000000 -0.000000 90.000000 0.000000 -2.309062 0.000000 0.000000 2.309062 0.000000 0.000000 8.520406 0.000000 0.000000 1.905762 0.000000 -0.000000 -4.658285 0.000000 0.000000 -0.000000 0.000000 0.000000 8.520406 0.000000 0.000000 1.905762 0.000000 -0.000000 -4.658285 0.000000 0.000000 -0.000000 0.000000
-86.123203 44.020218 18.639004 176.443110 -21.200914 -1.169883 -1.094568 16.911284 2.834456 -0.150421 1.796777 0.355351 -0.278533 3.012431 0.606381 -1.083471 14.924900 2.910535 2.589370 15.621295 -6.320967 4.281024 -9.083002 -7.460506 6.392222 2.258205 -5.595325 -3.619027 -5.749239 -2.648607 -174.471515 -80.737376 -172.087870 -2.755012 5.495677 -27.537966 -10.008699 -0.585672 -3.616320 10.956084 -5.144094 1.906868 161.457382 -58.080727 172.877458 12.149972 -0.336432 26.689448 -2.142473 -71.302086 11.854679 -145.270443 69.158872 -144.517044 -11.872665 -22.430263 7.902734 0.224997 -0.926138 0.107146 5.603802 -54.736225 -3.042079 176.644157 58.669113 175.970837 -3.052175 -41.701105 4.504591 0.050818 0.133923 -0.012896
-86.122827 44.020161 18.636687 176.451510 -21.224522 -1.195280 -1.074454 16.922097 2.854383 -0.122305 1.779228 0.339590 -0.299233 3.024353 0.619944 -1.018463 14.897357 2.892628 2.595452 15.671209 -6.278237 4.240283 -9.058892 -7.421691 6.408624 2.201180 -5.576745 -3.638887 -5.906633 -2.679582 -173.058365 -80.812929 -173.560473 -2.950084 5.338129 -27.421021 -10.122526 -0.685840 -3.540755 10.714802 -5.465985 2.023685 161.371772 -57.405342 172.665030 11.939261 -0.314527 26.710505 -2.194678 -71.273766 11.901309 -145.328034 69.169557 -144.562041 -11.882554 -22.445639 7.897047 0.223439 -0.912100 0.106261 5.563076 -54.716077 -3.023008 176.611546 58.661772 175.956757 -3.031965 -41.707627 4.475143 0.049374 0.133933 -0.006400
-86.125215 44.018712 18.636436 176.449097 -21.237504 -1.203634 -0.986979 16.885223 2.842052 -0.148176 1.797446 0.356720 -0.324185 3.033623 0.635589 -0.940607 14.876584 2.869962 2.592487 15.714377 -6.225623 4.196915 -9.035504 -7.379408 6.428346 2.143517 -5.542918 -3.713692 -6.093780 -2.736279 -172.683051 -80.917145 -173.998091 -3.049300 5.229496 -27.359789 -10.252612 -0.798638 -3.451852 10.390993 -5.818755 2.141435 161.300135 -56.794586 172.506229 11.712840 -0.245299 26.791448 -2.177749 -71.253446 11.876432 -145.375695 69.186221 -144.594843 -11.868825 -22.482702 7.896329 0.202803 -0.879594 0.096534 5.555857 -54.705940 -3.026074 176.593167 58.656579 175.949503 -3.016957 -41.710958 4.465620 0.046396 0.133376 -0.000807
-86.129125 44.016802 18.635916 176.458048 -21.255736 -1.208438 -0.926495 16.872337 2.827367 -0.153049 1.802211 0.362038 -0.321556 3.024422 0.635455 -0.875617 14.880318 2.863292 2.576354 15.746706 -6.165147 4.181789 -8.991305 -7.317718 6.446577 2.086356 -5.491206 -3.819088 -6.311463 -2.822070 -173.293286 -81.033361 -173.479396 -3.036916 5.192569 -27.338354 -10.396691 -0.927968 -3.346308 9.961616 -6.206070 2.256557 161.257822 -56.255045 172.393390 11.499775 -0.159972 26.862547 -2.173489 -71.232822 11.854844 -145.439986 69.196011 -144.646327 -11.883903 -22.514713 7.897630 0.203813 -0.855457 0.091122 5.551875 -54.691039 -3.043519 176.574868 58.652167 175.941610 -3.004909 -41.712577 4.461121 0.049122 0.134218 -0.006932
-86.131555 44.014667 18.634902 176.458462 -21.283145 -1.219396 -0.893542 16.888568 2.831981 -0.113106 1.791955 0.346373 -0.255401 3.004484 0.607104 -0.857340 14.901956 2.890111 2.545189 15.768992 -6.100338 4.149608 -8.963340 -7.245329 6.460005 2.028116 -5.427705 -3.905170 -6.549161 -2.931508 -174.774039 -81.143059 -172.151131 -2.915154 5.248549 -27.355970 -10.548100 -1.074168 -3.225586 9.403405 -6.636381 2.362688 161.236714 -55.796311 172.335127 11.321310 -0.080589 26.867094 -2.196872 -71.203958 11.874714 -145.474632 69.200812 -144.671202 -11.897334 -22.539599 7.891672 0.217562 -0.839610 0.094781 5.542097 -54.668285 -3.042595 176.556904 58.644561 175.936407 -2.994402 -41.714279 4.454513 0.048522 0.132313 -0.006262
-86.134943 44.011882 18.634507 176.451172 -21.312155 -1.222084 -0.798394 16.886537 2.828766 -0.140469 1.803884 0.357842 -0.201704 2.995352 0.591148 -0.806190 14.912544 2.900364 2.499848 15.786245 -6.036158 4.098577 -8.945622 -7.165585 6.472292 1.969951 -5.362362 -3.937752 -6.791488 -3.055416 -176.919393 -81.234410 -170.235695 -2.701056 5.402808 -27.413155 -10.702063 -1.234842 -3.098264 8.720399 -7.117644 2.455311 161.179772 -55.421523 172.364054 11.177224 -0.017490 26.777095 -2.188752 -71.174565 11.863215 -145.509719 69.208265 -144.698042 -11.889110 -22.562157 7.885415 0.217248 -0.836800 0.095248 5.542679 -54.646348 -3.044555 176.544596 58.634725 175.933338 -2.996297 -41.703970 4.458749 0.050204 0.123899 -0.001460
-86.141156 44.008501 18.634662 176.438685 -21.342796 -1.206012 -0.694963 16.880450 2.818133 -0.149247 1.811026 0.364122 -0.187722 2.997992 0.590562 -0.735480 14.920367 2.903930 2.442880 15.802375 -5.977575 4.027760 -8.931952 -7.081098 6.493081 1.917093 -5.301967 -3.915346 -7.026671 -3.188603 -179.381413 -81.296058 -168.076361 -2.430589 5.652825 -27.495684 -10.855707 -1.407282 -2.977022 7.952899 -7.654782 2.538272 161.011882 -55.114650 172.507348 11.057387 0.031826 26.588544 -2.105506 -71.151410 11.762407 -145.580534 69.218234 -144.752714 -11.858588 -22.564199 7.877157 0.194931 -0.843227 0.085007 5.570001 -54.618362 -3.076498 176.527541 58.628698 175.923259 -2.995503 -41.697509 4.455690 0.054162 0.119552 0.001895
-86.149205 44.009064 18.624227 176.387695 -21.447785 -1.160779 -0.569551 16.952050 2.801018 -0.119941 1.806742 0.359381 -0.248179 3.018299 0.602329 -0.609021 14.919007 2.902893 2.375659 15.816519 -5.926559 3.942727 -8.902495 -6.955881 6.528852 1.873581 -5.250543 -3.857798 -7.248637 -3.326023 178.304923 -81.322862 -166.111088 -2.150262 5.983584 -27.582800 -11.010213 -1.594919 -2.869987 7.156457 -8.249274 2.625602 160.664625 -54.857657 172.772636 10.962272 0.066132 26.303411 -1.946826 -71.052664 11.635138 -145.579043 69.211548 -144.747321 -11.845879 -22.558669 7.874336 0.203089 -0.852850 0.089379 5.638306 -54.450284 -3.121624 176.497942 58.662886 175.919821 -3.029794 -41.817585 4.444713 0.091908 0.219620 0.019935
-86.155446 44.006103 18.623182 176.391570 -21.499084 -1.149768 -0.480313 16.970437 2.806479 -0.110637 1.809395 0.360122 -0.206802 3.016501 0.600312 -0.553913 14.934971 2.920595 2.299716 15.828147 -5.882692 3.843577 -8.902102 -6.898625 6.580346 1.841341 -5.207694 -3.804127 -7.455186 -3.463120 176.629654 -81.321551 -164.781209 -1.900764 6.363052 -27.657038 -11.169523 -1.796521 -2.776185 6.368823 -8.906990 2.730940 160.085266 -54.638924 173.160770 10.907311 0.076677 25.945852 -1.888493 -71.005891 11.559877 -145.550663 69.201062 -144.719811 -11.817177 -22.542673 7.878154 0.188341 -0.872232 0.085187 5.646777 -54.400501 -3.149067 176.479693 58.657989 175.907637 -3.028859 -41.815689 4.437501 0.095448 0.221412 0.025734
-86.160691 44.002310 18.624857 176.399362 -21.539851 -1.147151 -0.379159 16.976269 2.826169 -0.100552 1.812425 0.361307 -0.161040 3.016528 0.599748 -0.494537 14.950233 2.942506 2.217579 15.838985 -5.844424 3.727025 -8.902171 -6.835190 6.643732 1.820600 -5.171548 -3.800174 -7.644065 -3.597402 175.950337 -81.299012 -164.388593 -1.715240 6.745894 -27.712151 -11.329495 -1.994761 -2.689508 5.596717 -9.638017 2.859665 159.259326 -54.442733 173.662039 10.907928 0.066140 25.562205 -1.861071 -70.970110 11.516553 -145.484454 69.190931 -144.659148 -11.789070 -22.498546 7.877534 0.162353 -0.896335 0.082670 5.644361 -54.364996 -3.165377 176.459293 58.653081 175.893756 -3.029528 -41.816004 4.431310 0.097475 0.228411 0.030360
-86.164812 43.996889 18.631555 176.388357 -21.555370 -1.146025 -0.246585 16.954741 2.859868 -0.089489 1.815598 0.362677 -0.142537 3.021584 0.602340 -0.399363 14.961383 2.962806 2.130862 15.847483 -5.807451 3.613062 -8.890595 -6.766004 6.713916 1.807385 -5.138122 -3.872017 -7.812553 -3.729125 176.463061 -81.254529 -165.091704 -1.611212 7.085758 -27.736812 -11.483420 -2.175125 -2.599506 4.838795 -10.451679 3.010238 158.223652 -54.255141 174.253514 10.972268 0.043287 25.181685 -1.853319 -70.958149 11.517754 -145.300476 69.172600 -144.495418 -11.723059 -22.448184 7.874918 0.150251 -0.905399 0.083209 5.650909 -54.361059 -3.178455 176.426626 58.646049 175.870871 -3.015661 -41.810890 4.416387 0.092636 0.232441 0.029103
